<svg width="1200" height="1200" xmlns="http://www.w3.org/2000/svg" preserveAspectRatio="xMidYMid meet">

 <g>
  <title>background</title>
  <rect fill="none" id="canvas_background" height="402" width="582" y="-1" x="-1"/>
 </g>
 <g>
  <title>Layer 1</title>
  <g id="svg_1" fill="#000000" transform="translate(0,1200) scale(0.10000000149011612,-0.10000000149011612) ">
   <path fill="#0E353B" id="svg_2" d="m0,6000l0,-6000l6000,0l6000,0l0,6000l0,6000l-6000,0l-6000,0l0,-6000zm6832,4823c458,-372 1398,-1136 2088,-1697c2162,-1757 1933,-1566 1912,-1590c-10,-12 -32,-38 -49,-58l-31,-37l-299,243c-164,133 -732,595 -1263,1026c-531,431 -1107,899 -1280,1040c-173,141 -674,547 -1113,903l-797,648l-478,-388c-262,-213 -691,-561 -952,-773c-261,-213 -765,-622 -1120,-910c-355,-288 -728,-591 -830,-675c-202,-165 -1349,-1094 -1365,-1105c-5,-4 -31,18 -57,50l-47,57l712,580c391,318 1286,1045 1987,1615c701,570 1471,1196 1710,1391c239,195 436,356 437,356c1,1 377,-304 835,-676zm-212,-2150c0,-4 -55,-63 -122,-130c-118,-118 -124,-123 -164,-123c-41,0 -44,-2 -310,-276c-148,-152 -270,-283 -272,-292c-17,-90 -63,-146 -136,-167c-87,-25 -172,9 -216,87c-42,74 -28,169 32,225c26,25 88,53 115,53c10,0 161,140 338,315l320,314l208,0c114,1 207,-2 207,-6zm220,-3c26,-7 83,-57 220,-195l185,-185l0,-60l0,-60l-187,-187l-188,-188l-250,250l-250,250l183,183c162,162 200,193 247,201c3,1 21,-4 40,-9zm-357,-756c133,-135 243,-249 245,-252c1,-4 -303,-312 -676,-685l-677,-677l-313,-64c-171,-35 -312,-61 -312,-57c0,3 27,143 61,311l62,305l681,683c374,375 682,682 684,682c1,0 112,-111 245,-246zm-438,-2804c4,-6 8,-25 10,-43c2,-18 17,-130 34,-249c17,-119 31,-222 31,-228c0,-6 -12,-10 -27,-8c-20,2 -29,9 -31,26c-2,12 -5,22 -6,22c-2,0 -24,-12 -50,-26c-49,-27 -143,-42 -190,-30c-42,10 -66,41 -66,84c0,75 66,139 193,188c40,15 73,29 75,30c2,1 -1,53 -8,115c-9,90 -8,114 2,120c17,11 26,11 33,-1zm2920,0c4,-6 8,-25 10,-43c2,-18 17,-130 34,-249c17,-119 31,-222 31,-228c0,-6 -12,-10 -27,-8c-20,2 -29,9 -31,26c-2,12 -5,22 -6,22c-2,0 -24,-12 -50,-26c-49,-27 -143,-42 -190,-30c-42,10 -66,41 -66,84c0,75 66,139 193,188c40,15 73,29 75,30c2,1 -1,53 -8,115c-9,90 -8,114 2,120c17,11 26,11 33,-1zm-3862,-37c14,-51 16,-96 8,-163c-6,-41 -13,-95 -16,-120c-4,-31 -3,-39 4,-25c16,35 49,57 95,62c94,11 145,-37 154,-142c5,-68 -12,-115 -43,-115c-12,0 -15,15 -15,74c0,64 -3,79 -23,102c-21,23 -28,26 -61,20c-54,-10 -78,-53 -74,-131c3,-58 2,-60 -23,-63c-67,-8 -88,96 -67,330c14,145 25,188 49,188c4,0 10,-8 12,-17zm-212,-41c33,-27 19,-47 -51,-73c-67,-24 -90,-48 -90,-94c0,-49 14,-55 121,-55c110,0 129,-9 129,-64c0,-77 -154,-219 -176,-162c-3,8 19,38 56,74c34,33 60,66 58,74c-3,9 -32,15 -96,18c-71,4 -97,10 -119,26c-76,57 -44,176 66,245c53,34 71,36 102,11zm1931,-44c8,-15 12,-57 11,-113c-3,-120 -31,-211 -82,-265c-33,-35 -43,-40 -84,-40c-37,0 -51,5 -76,30c-42,42 -70,126 -78,229c-6,95 4,131 37,131c28,0 31,-12 19,-74c-8,-45 -7,-69 6,-119c22,-86 42,-112 91,-112c32,0 42,5 61,33c34,51 47,133 37,225c-6,49 -6,81 0,87c17,17 45,11 58,-12zm-3577,-32c40,-26 62,-89 75,-211c7,-60 16,-120 21,-133c10,-27 -6,-65 -24,-59c-10,3 -50,64 -60,91c-2,5 -25,-6 -52,-24c-61,-42 -140,-53 -191,-25c-103,55 -66,267 62,353c42,30 55,33 96,30c26,-3 59,-13 73,-22zm1290,0c40,-26 62,-89 75,-211c7,-60 16,-120 21,-133c10,-27 -6,-65 -24,-59c-10,3 -50,64 -60,91c-2,5 -25,-6 -52,-24c-61,-42 -140,-53 -191,-25c-103,55 -66,267 62,353c42,30 55,33 96,30c26,-3 59,-13 73,-22zm1075,-3c87,-78 13,-246 -115,-261c-52,-5 -56,-14 -18,-39c27,-18 40,-19 193,-10c42,2 45,0 45,-23c0,-20 -8,-28 -35,-37c-55,-19 -159,-15 -206,6c-166,76 -116,391 62,391c33,0 51,-6 74,-27zm2560,0c87,-78 13,-246 -115,-261c-52,-5 -56,-14 -18,-39c27,-18 40,-19 193,-10c42,2 45,0 45,-23c0,-20 -8,-28 -35,-37c-55,-19 -159,-15 -206,6c-166,76 -116,391 62,391c33,0 51,-6 74,-27zm-1077,-7c51,-21 72,-52 71,-101c-1,-57 -37,-117 -114,-187c-71,-65 -71,-64 -9,-167c22,-36 39,-78 39,-94c0,-25 -3,-28 -27,-25c-46,5 -96,119 -157,359c-33,129 -27,177 27,209c38,24 122,27 170,6zm-2898,-146c-1,-119 -4,-151 -18,-178c-10,-18 -25,-36 -33,-39c-41,-16 -115,52 -166,152l-21,39l-27,-83c-15,-46 -35,-90 -45,-98c-42,-30 -53,-19 -121,123c-68,144 -78,184 -44,184c15,0 32,-24 70,-100c28,-55 54,-100 58,-100c5,0 16,33 27,73c25,99 40,127 69,127c33,0 71,-48 118,-147c38,-84 51,-97 63,-66c6,17 24,190 25,241c0,18 5,23 23,20c22,-3 22,-5 22,-148zm4434,94c39,-33 42,-71 5,-80c-18,-5 -29,-1 -38,11c-19,26 -60,13 -76,-25c-8,-19 -11,-64 -9,-127c4,-94 3,-98 -18,-101c-31,-5 -69,40 -114,133c-48,100 -68,170 -52,186c21,21 44,0 71,-61c15,-33 30,-60 34,-60c3,0 12,16 18,35c6,20 23,49 38,66c45,55 94,63 141,23zm-818,-41c45,-27 70,-90 77,-189l5,-84l-26,0c-22,0 -26,5 -32,43c-19,126 -46,187 -85,187c-28,0 -59,-60 -75,-145c-8,-42 -15,-79 -15,-82c0,-2 -12,-3 -27,-1c-35,4 -64,54 -92,156c-21,79 -19,102 9,102c13,0 23,-13 32,-42c17,-49 33,-59 42,-25c3,14 24,41 46,61c46,41 92,48 141,19zm-1361,-33c41,-28 -65,-54 -190,-48c-57,3 -65,5 -65,23c0,18 9,21 70,26c118,9 169,9 185,-1zm-4520,-777c570,-462 2907,-2361 3785,-3075c154,-125 282,-228 285,-228c3,0 372,299 820,663c448,365 1384,1125 2080,1691c696,565 1397,1135 1559,1266l293,239l44,-54c24,-29 44,-58 44,-63c0,-5 -152,-132 -337,-283c-1445,-1175 -2964,-2409 -3568,-2899c-396,-321 -768,-623 -827,-672l-107,-88l-483,392c-266,216 -697,566 -958,778c-261,212 -740,602 -1065,865c-324,263 -734,596 -910,740c-176,144 -571,465 -877,713l-558,453l48,58c26,32 52,55 57,51c6,-4 309,-250 675,-547z"/>
   <path fill="#0E353B" id="svg_3" d="m5201,6766l-93,-94l-18,-86c-9,-47 -14,-86 -10,-86c4,0 43,7 86,16l79,16l97,96l98,97l-67,67c-37,38 -70,68 -73,68c-3,0 -47,-42 -99,-94z"/>
   <path fill="#0E353B" id="svg_4" d="m5928,4785c-78,-29 -126,-83 -113,-125c9,-28 77,-30 126,-4c73,37 107,136 49,141c-14,1 -41,-4 -62,-12z"/>
   <path fill="#0E353B" id="svg_5" d="m8848,4785c-78,-29 -126,-83 -113,-125c9,-28 77,-30 126,-4c73,37 107,136 49,141c-14,1 -41,-4 -62,-12z"/>
   <path fill="#0E353B" id="svg_6" d="m3114,4896c-54,-33 -94,-106 -94,-174c0,-41 4,-54 22,-66c29,-21 54,-20 105,3c25,12 48,32 58,51c23,45 29,118 13,165c-16,50 -46,56 -104,21z"/>
   <path fill="#0E353B" id="svg_7" d="m4404,4896c-54,-33 -94,-106 -94,-174c0,-41 4,-54 22,-66c29,-21 54,-20 105,3c25,12 48,32 58,51c23,45 29,118 13,165c-16,50 -46,56 -104,21z"/>
   <path fill="#0E353B" id="svg_8" d="m5515,4911c-37,-16 -58,-49 -59,-94c-1,-37 2,-42 23,-45c38,-6 70,7 87,34c22,32 20,85 -2,101c-20,15 -22,15 -49,4z"/>
   <path fill="#0E353B" id="svg_9" d="m8075,4911c-37,-16 -58,-49 -59,-94c-1,-37 2,-42 23,-45c38,-6 70,7 87,34c22,32 20,85 -2,101c-20,15 -22,15 -49,4z"/>
   <path fill="#0E353B" id="svg_10" d="m6980,4893c-29,-10 -40,-37 -40,-94c0,-41 5,-63 19,-80c19,-24 20,-24 53,-6c41,22 88,90 88,128c0,46 -62,73 -120,52z"/>
  </g>
 </g>
</svg>